<svg width="198" height="38" viewBox="0 0 198 38" fill="none" xmlns="http://www.w3.org/2000/svg">
<g clip-path="url(#clip0_370_768)">
<rect width="38" height="38" rx="19" fill="black"/>
<line x1="3.68207" y1="-3.44397" x2="3.68207" y2="37.8839" stroke="white" stroke-width="0.011609"/>
<line x1="8.78998" y1="-3.44397" x2="8.78998" y2="37.8839" stroke="white" stroke-width="0.011609"/>
<line x1="13.8979" y1="-3.44397" x2="13.8979" y2="37.8839" stroke="white" stroke-width="0.011609"/>
<line x1="19.0058" y1="-3.44397" x2="19.0058" y2="37.8839" stroke="white" stroke-width="0.011609"/>
<line x1="24.1137" y1="-3.44397" x2="24.1137" y2="37.8839" stroke="white" stroke-width="0.011609"/>
<line x1="29.2216" y1="-3.44397" x2="29.2216" y2="37.8839" stroke="white" stroke-width="0.011609"/>
<line x1="34.3295" y1="-3.44397" x2="34.3295" y2="37.8839" stroke="white" stroke-width="0.011609"/>
<line x1="64.9717" y1="3.56589" x2="-2.59247" y2="3.56589" stroke="white" stroke-width="0.321181"/>
<line x1="64.9717" y1="8.71253" x2="-2.59247" y2="8.71253" stroke="white" stroke-width="0.321181"/>
<line x1="64.9717" y1="13.8592" x2="-2.59247" y2="13.8592" stroke="white" stroke-width="0.321181"/>
<line x1="64.9717" y1="19.0058" x2="-2.59247" y2="19.0058" stroke="white" stroke-width="0.321181"/>
<line x1="64.9717" y1="24.1525" x2="-2.59247" y2="24.1525" stroke="white" stroke-width="0.321181"/>
<line x1="64.9717" y1="29.2991" x2="-2.59247" y2="29.2991" stroke="white" stroke-width="0.321181"/>
<line x1="64.9717" y1="34.4458" x2="-2.59247" y2="34.4458" stroke="white" stroke-width="0.321181"/>
<g style="mix-blend-mode:difference">
<circle cx="18.9817" cy="18.9816" r="14.6433" stroke="white" stroke-width="1.32413"/>
<mask id="path-17-outside-1_370_768" maskUnits="userSpaceOnUse" x="8.67334" y="3.09528" width="23" height="31" fill="black">
<rect fill="white" x="8.67334" y="3.09528" width="23" height="31"/>
<path d="M13.7851 32.9667C12.5294 32.9667 11.7115 31.6706 11.1115 31.6706V30.826C11.2292 30.8522 11.7067 30.8653 12.5438 30.8653C13.6033 30.8653 14.4078 30.6821 14.9571 30.3159C15.5065 29.9627 15.8793 29.3675 16.0755 28.5304C16.0755 28.5173 16.1082 28.3538 16.1736 28.0399C16.239 27.726 16.2652 27.5559 16.2521 27.5297C16.2521 27.5297 7.56415 9.26766 10.1562 7.04588C13.7851 3.93538 11.7115 6.00905 11.7115 6.00905L12.1028 5.69917C12.1028 5.69917 18.9693 2.63936 15.5996 4.97222C12.2299 7.30509 19.7053 22.9189 19.7053 22.9189H19.8034C19.8034 22.9189 22.8574 5.69917 25.4495 5.69917C28.0416 5.69917 27.7823 7.30509 27.7823 7.30509H28.3008C28.3008 7.30509 32.6727 10.4156 30.1152 9.63795C27.5577 8.86033 23.0801 27.981 23.0801 27.981C22.1775 30.6756 20.9872 32.5657 19.5091 33.6514C18.0441 34.7501 16.4797 32.9667 13.7851 32.9667Z"/>
</mask>
<path d="M13.7851 32.9667C12.5294 32.9667 11.7115 31.6706 11.1115 31.6706V30.826C11.2292 30.8522 11.7067 30.8653 12.5438 30.8653C13.6033 30.8653 14.4078 30.6821 14.9571 30.3159C15.5065 29.9627 15.8793 29.3675 16.0755 28.5304C16.0755 28.5173 16.1082 28.3538 16.1736 28.0399C16.239 27.726 16.2652 27.5559 16.2521 27.5297C16.2521 27.5297 7.56415 9.26766 10.1562 7.04588C13.7851 3.93538 11.7115 6.00905 11.7115 6.00905L12.1028 5.69917C12.1028 5.69917 18.9693 2.63936 15.5996 4.97222C12.2299 7.30509 19.7053 22.9189 19.7053 22.9189H19.8034C19.8034 22.9189 22.8574 5.69917 25.4495 5.69917C28.0416 5.69917 27.7823 7.30509 27.7823 7.30509H28.3008C28.3008 7.30509 32.6727 10.4156 30.1152 9.63795C27.5577 8.86033 23.0801 27.981 23.0801 27.981C22.1775 30.6756 20.9872 32.5657 19.5091 33.6514C18.0441 34.7501 16.4797 32.9667 13.7851 32.9667Z" fill="white"/>
<path d="M11.1115 31.6706H11.0336V31.7485H11.1115V31.6706ZM11.1115 30.826L11.1284 30.75L11.0336 30.7289V30.826H11.1115ZM14.9571 30.3159L14.915 30.2504L14.9139 30.2511L14.9571 30.3159ZM16.0755 28.5304L16.1514 28.5482L16.1534 28.5394V28.5304H16.0755ZM16.2521 27.5297L16.1818 27.5632L16.1824 27.5646L16.2521 27.5297ZM11.7115 6.00905L11.6564 5.95397L11.7598 6.07011L11.7115 6.00905ZM19.7053 22.9189L19.6351 22.9525L19.6563 22.9968H19.7053V22.9189ZM19.8034 22.9189V22.9968H19.8687L19.8801 22.9325L19.8034 22.9189ZM28.3008 7.30509L28.3459 7.24162L28.3256 7.2272H28.3008V7.30509ZM23.0801 27.981L23.1543 28.0059L23.1559 27.9988L23.0801 27.981ZM19.5091 33.6514L19.463 33.5886L19.4624 33.5891L19.5091 33.6514ZM12.1028 5.69917L12.0711 5.62802L12.0621 5.63201L12.0544 5.6381L12.1028 5.69917ZM10.1562 7.04588L10.1055 6.98674L10.1055 6.98674L10.1562 7.04588ZM27.7823 7.30509L27.7055 7.29268L27.6909 7.38298H27.7823V7.30509ZM13.7851 32.8888C13.1843 32.8888 12.6836 32.5788 12.2488 32.2561C12.0353 32.0976 11.8315 31.9311 11.6492 31.8085C11.4675 31.6863 11.2868 31.5927 11.1115 31.5927V31.7485C11.2362 31.7485 11.3827 31.817 11.5623 31.9378C11.7414 32.0582 11.9331 32.2157 12.156 32.3812C12.5941 32.7065 13.1303 33.0445 13.7851 33.0445V32.8888ZM11.1894 31.6706V30.826H11.0336V31.6706H11.1894ZM11.0946 30.902C11.1624 30.9171 11.3198 30.9268 11.5557 30.9333C11.7955 30.9399 12.125 30.9431 12.5438 30.9431V30.7874C12.1255 30.7874 11.7977 30.7841 11.56 30.7776C11.3185 30.771 11.1783 30.7611 11.1284 30.75L11.0946 30.902ZM12.5438 30.9431C13.6102 30.9431 14.4326 30.7592 15.0003 30.3807L14.9139 30.2511C14.3829 30.6051 13.5964 30.7874 12.5438 30.7874V30.9431ZM14.9993 30.3814C15.5705 30.0142 15.952 29.3986 16.1514 28.5482L15.9997 28.5126C15.8066 29.3365 15.4425 29.9112 14.915 30.2504L14.9993 30.3814ZM16.1534 28.5304C16.1534 28.5364 16.1526 28.5394 16.1539 28.5308C16.1548 28.5254 16.1562 28.5174 16.1582 28.5066C16.1622 28.485 16.1683 28.454 16.1764 28.4132C16.1927 28.3318 16.2172 28.2127 16.2499 28.0558L16.0974 28.024C16.0647 28.181 16.0401 28.3006 16.0237 28.3827C16.0155 28.4237 16.0093 28.4556 16.0051 28.4782C16.003 28.4895 16.0013 28.4988 16.0002 28.506C15.9995 28.5101 15.9976 28.5211 15.9976 28.5304H16.1534ZM16.2499 28.0558C16.2827 27.8984 16.3059 27.7758 16.3193 27.6887C16.3259 27.6454 16.3304 27.6093 16.3323 27.5815C16.3332 27.5677 16.3336 27.5543 16.333 27.5422C16.3325 27.5331 16.3311 27.5136 16.3218 27.4949L16.1824 27.5646C16.1764 27.5524 16.1771 27.544 16.1774 27.5504C16.1776 27.5538 16.1776 27.5604 16.1768 27.5712C16.1754 27.5924 16.1717 27.6234 16.1653 27.6651C16.1525 27.748 16.13 27.8674 16.0974 28.024L16.2499 28.0558ZM15.5552 4.90818C15.1104 5.21613 14.8519 5.7383 14.7319 6.39924C14.6118 7.06049 14.6283 7.87064 14.7422 8.77035C14.9702 10.5702 15.5908 12.7467 16.3152 14.8458C17.0399 16.9458 17.8698 18.9724 18.5184 20.4737C18.8428 21.2244 19.1219 21.844 19.3199 22.2759C19.4189 22.4919 19.4977 22.6609 19.5517 22.7761C19.5787 22.8336 19.5995 22.8777 19.6136 22.9074C19.6207 22.9223 19.626 22.9335 19.6296 22.9411C19.6314 22.9449 19.6328 22.9477 19.6337 22.9496C19.6341 22.9506 19.6345 22.9513 19.6347 22.9518C19.6348 22.952 19.6349 22.9522 19.635 22.9523C19.6351 22.9525 19.6351 22.9525 19.7053 22.9189C19.7756 22.8853 19.7756 22.8852 19.7755 22.8851C19.7755 22.885 19.7754 22.8848 19.7753 22.8846C19.775 22.8841 19.7747 22.8834 19.7743 22.8825C19.7734 22.8806 19.772 22.8778 19.7702 22.8741C19.7667 22.8666 19.7614 22.8554 19.7544 22.8407C19.7404 22.8111 19.7196 22.7673 19.6927 22.7099C19.6389 22.5952 19.5603 22.4265 19.4615 22.211C19.2639 21.7799 18.9853 21.1614 18.6615 20.4119C18.0137 18.9127 17.1854 16.89 16.4625 14.795C15.7392 12.699 15.1227 10.5346 14.8968 8.75078C14.7838 7.85864 14.7691 7.06622 14.8852 6.42707C15.0013 5.78761 15.2463 5.31153 15.6439 5.03626L15.5552 4.90818ZM19.7053 22.9968H19.8034V22.841H19.7053V22.9968ZM19.8034 22.9189C19.8801 22.9325 19.8801 22.9324 19.8802 22.9323C19.8802 22.9322 19.8802 22.932 19.8803 22.9317C19.8804 22.9312 19.8805 22.9304 19.8807 22.9294C19.8811 22.9273 19.8816 22.9242 19.8823 22.9201C19.8838 22.9119 19.886 22.8995 19.8889 22.8833C19.8948 22.8508 19.9035 22.8025 19.915 22.7395C19.938 22.6135 19.972 22.4287 20.0163 22.1934C20.1048 21.7228 20.2341 21.0505 20.3975 20.2438C20.7241 18.6301 21.1866 16.4789 21.7299 14.3281C22.2735 12.1766 22.8972 10.0282 23.546 8.41887C23.8706 7.61373 24.1999 6.94753 24.5263 6.48392C24.6896 6.25213 24.85 6.07399 25.0063 5.9544C25.1623 5.83492 25.3099 5.77706 25.4495 5.77706L25.4495 5.62128C25.2651 5.62128 25.085 5.69794 24.9116 5.8307C24.7383 5.96336 24.5673 6.15517 24.399 6.39423C24.0623 6.87233 23.7277 7.55142 23.4015 8.36062C22.7487 9.97998 22.1229 12.1366 21.5789 14.29C21.0348 16.444 20.5717 18.5978 20.2448 20.2129C20.0813 21.0204 19.9518 21.6934 19.8632 22.1646C19.8189 22.4002 19.7848 22.5853 19.7617 22.7115C19.7502 22.7747 19.7415 22.8231 19.7356 22.8557C19.7327 22.872 19.7305 22.8844 19.729 22.8927C19.7282 22.8969 19.7277 22.9 19.7273 22.9021C19.7271 22.9032 19.727 22.904 19.7269 22.9045C19.7268 22.9047 19.7268 22.905 19.7268 22.9051C19.7268 22.9052 19.7267 22.9053 19.8034 22.9189ZM23.0062 27.9563C22.1062 30.6434 20.9228 32.5164 19.463 33.5886L19.5552 33.7142C21.0516 32.6151 22.2489 30.7078 23.1539 28.0058L23.0062 27.9563ZM19.4624 33.5891C18.765 34.1121 18.0448 33.956 17.1332 33.6473C16.2277 33.3406 15.1484 32.8888 13.7851 32.8888V33.0445C15.1165 33.0445 16.1666 33.4844 17.0832 33.7948C17.9937 34.1032 18.7882 34.2894 19.5559 33.7137L19.4624 33.5891ZM11.7598 6.07011L12.1511 5.76023L12.0544 5.6381L11.6631 5.94799L11.7598 6.07011ZM12.1028 5.69917C12.1345 5.77031 12.1345 5.7703 12.1345 5.77028C12.1346 5.77026 12.1347 5.77022 12.1348 5.77018C12.135 5.77009 12.1353 5.76995 12.1357 5.76977C12.1365 5.7694 12.1377 5.76885 12.1394 5.76813C12.1426 5.76668 12.1475 5.76451 12.1539 5.76166C12.1668 5.75596 12.1858 5.74753 12.2105 5.73663C12.2599 5.71482 12.3319 5.68314 12.4224 5.64363C12.6034 5.56461 12.8582 5.45431 13.1534 5.32924C13.7441 5.07899 14.4957 4.77002 15.1415 4.53403C15.4646 4.41597 15.7599 4.3167 15.9946 4.25215C16.1121 4.21985 16.213 4.19667 16.2937 4.18405C16.3774 4.17098 16.43 4.17091 16.4564 4.17732C16.4691 4.18039 16.4649 4.18241 16.4587 4.17438C16.4504 4.16351 16.4527 4.15367 16.4521 4.15645C16.451 4.16137 16.4462 4.17443 16.4305 4.19722C16.4153 4.21923 16.3927 4.24653 16.3608 4.27958C16.2319 4.41312 15.9763 4.6167 15.5552 4.90818L15.6439 5.03626C16.0653 4.74452 16.3323 4.53341 16.4728 4.38776C16.5083 4.35101 16.5372 4.31698 16.5588 4.28561C16.5799 4.25503 16.5971 4.22267 16.6043 4.1896C16.6119 4.1544 16.6088 4.114 16.5823 4.07951C16.558 4.04785 16.523 4.03317 16.4932 4.02593C16.4347 4.01174 16.3557 4.0167 16.2697 4.03014C16.1808 4.04403 16.0737 4.06886 15.9533 4.10194C15.7125 4.16815 15.4127 4.2691 15.0881 4.38771C14.4385 4.62506 13.6841 4.93524 13.0926 5.1858C12.7968 5.31114 12.5414 5.42166 12.3601 5.50086C12.2694 5.54047 12.1972 5.57224 12.1476 5.59412C12.1228 5.60506 12.1037 5.61353 12.0908 5.61926C12.0843 5.62213 12.0794 5.62431 12.0761 5.62579C12.0744 5.62652 12.0732 5.62708 12.0723 5.62745C12.0719 5.62764 12.0716 5.62778 12.0714 5.62787C12.0713 5.62792 12.0712 5.62796 12.0711 5.62798C12.0711 5.62801 12.0711 5.62802 12.1028 5.69917ZM16.2521 27.5297C16.3224 27.4963 16.3224 27.4962 16.3223 27.4961C16.3223 27.4959 16.3222 27.4957 16.3221 27.4955C16.3218 27.4949 16.3214 27.4941 16.3209 27.493C16.3198 27.4908 16.3183 27.4875 16.3162 27.4831C16.312 27.4744 16.3059 27.4613 16.2977 27.444C16.2814 27.4095 16.2572 27.3581 16.2257 27.291C16.1627 27.1569 16.0708 26.9598 15.9546 26.7081C15.7222 26.2047 15.3931 25.483 15.0063 24.61C14.2327 22.864 13.2282 20.5131 12.3049 18.0932C11.3813 15.6726 10.5399 13.1858 10.0912 11.1669C9.86675 10.1571 9.74145 9.26824 9.75183 8.56509C9.76228 7.8571 9.91004 7.35947 10.2069 7.10501L10.1055 6.98674C9.75438 7.28772 9.60663 7.84681 9.59606 8.56279C9.58543 9.2836 9.71361 10.186 9.93914 11.2007C10.3904 13.2308 11.235 15.7261 12.1594 18.1487C13.084 20.5721 14.0896 22.9256 14.8639 24.6731C15.2511 25.5469 15.5805 26.2694 15.8131 26.7734C15.9295 27.0254 16.0216 27.2228 16.0847 27.3572C16.1162 27.4244 16.1404 27.4759 16.1568 27.5106C16.165 27.5279 16.1713 27.5411 16.1754 27.5499C16.1775 27.5543 16.1791 27.5576 16.1802 27.5598C16.1807 27.5609 16.1811 27.5618 16.1814 27.5624C16.1815 27.5626 16.1816 27.5628 16.1817 27.563C16.1817 27.5631 16.1818 27.5632 16.2521 27.5297ZM10.2069 7.10501C11.1141 6.32746 11.6635 5.87502 11.9777 5.63337C12.1359 5.51162 12.2307 5.44635 12.2803 5.41928C12.2925 5.41264 12.2994 5.40973 12.3023 5.40874C12.3094 5.40628 12.2954 5.41331 12.2744 5.40731C12.2601 5.40323 12.2438 5.39326 12.2331 5.3752C12.2235 5.35904 12.2231 5.34407 12.2235 5.33718C12.2242 5.32538 12.2281 5.32008 12.225 5.32619C12.214 5.34826 12.1765 5.3975 12.1173 5.46604C12.0607 5.5316 11.9907 5.6076 11.9221 5.68016C11.8537 5.7526 11.7873 5.82109 11.7379 5.8715C11.7132 5.8967 11.6928 5.91735 11.6786 5.93169C11.6714 5.93885 11.6659 5.94444 11.6621 5.94823C11.6602 5.95013 11.6588 5.95157 11.6578 5.95254C11.6573 5.95302 11.657 5.95338 11.6567 5.95362C11.6566 5.95374 11.6565 5.95383 11.6565 5.95389C11.6564 5.95392 11.6564 5.95394 11.6564 5.95395C11.6564 5.95397 11.6564 5.95397 11.7115 6.00905C11.7665 6.06412 11.7666 6.06411 11.7666 6.06409C11.7666 6.06408 11.7666 6.06405 11.7667 6.06402C11.7667 6.06395 11.7668 6.06385 11.7669 6.06372C11.7672 6.06346 11.7676 6.06308 11.7681 6.06258C11.7691 6.06157 11.7706 6.06009 11.7725 6.05816C11.7763 6.05429 11.782 6.04861 11.7892 6.04135C11.8036 6.02683 11.8242 6.00597 11.8491 5.98054C11.8989 5.9297 11.9661 5.86048 12.0354 5.78712C12.1046 5.71387 12.1764 5.63596 12.2352 5.56787C12.2914 5.50276 12.343 5.43859 12.3644 5.39586C12.3694 5.38577 12.3779 5.3673 12.3791 5.34582C12.3797 5.33409 12.3786 5.31515 12.3672 5.29595C12.3547 5.27484 12.3355 5.26275 12.3172 5.25753C12.2883 5.24926 12.2618 5.25792 12.2515 5.26147C12.2369 5.2665 12.2214 5.27397 12.2057 5.28252C12.144 5.3162 12.0403 5.38863 11.8827 5.50989C11.565 5.75426 11.0128 6.20904 10.1055 6.98674L10.2069 7.10501ZM25.4495 5.77706C26.7295 5.77706 27.2825 6.17265 27.5225 6.54438C27.644 6.73254 27.6897 6.92088 27.7049 7.0625C27.7125 7.13324 27.7125 7.19194 27.7106 7.2325C27.7097 7.25275 27.7083 7.26842 27.7072 7.27872C27.7066 7.28387 27.7061 7.28767 27.7058 7.29003C27.7057 7.29121 27.7055 7.29203 27.7055 7.29248C27.7054 7.2927 27.7054 7.29283 27.7054 7.29286C27.7054 7.29288 27.7054 7.29287 27.7054 7.29284C27.7054 7.29283 27.7054 7.29278 27.7054 7.29278C27.7054 7.29273 27.7055 7.29268 27.7823 7.30509C27.8592 7.3175 27.8593 7.31743 27.8593 7.31736C27.8593 7.31733 27.8593 7.31725 27.8593 7.31719C27.8593 7.31706 27.8593 7.31691 27.8594 7.31673C27.8594 7.31638 27.8595 7.31592 27.8596 7.31537C27.8597 7.31427 27.8599 7.31279 27.8602 7.31093C27.8607 7.30721 27.8614 7.302 27.8621 7.29539C27.8635 7.28216 27.8651 7.26333 27.8662 7.23967C27.8684 7.1924 27.8684 7.12564 27.8598 7.04583C27.8426 6.88633 27.7911 6.67319 27.6534 6.45988C27.375 6.02864 26.7615 5.62128 25.4495 5.62128L25.4495 5.77706ZM27.7823 7.38298H28.3008V7.2272H27.7823V7.38298ZM28.3008 7.30509C28.2556 7.36855 28.2556 7.36856 28.2556 7.36858C28.2557 7.36861 28.2557 7.36864 28.2558 7.36868C28.2559 7.36877 28.2561 7.36891 28.2564 7.36909C28.2569 7.36946 28.2577 7.37001 28.2587 7.37075C28.2607 7.37222 28.2638 7.37443 28.2679 7.37734C28.276 7.38316 28.2881 7.3918 28.3037 7.40305C28.335 7.42556 28.3806 7.4585 28.4377 7.50016C28.552 7.58349 28.7124 7.70169 28.897 7.8411C29.2663 8.12015 29.7311 8.4833 30.1156 8.82161C30.3079 8.99086 30.4789 9.15273 30.6074 9.29397C30.6717 9.3646 30.7243 9.429 30.7636 9.48575C30.8034 9.54341 30.8264 9.58894 30.8356 9.6222C30.84 9.63838 30.8404 9.64876 30.8397 9.65461C30.8391 9.65958 30.8379 9.66117 30.8372 9.66203C30.8348 9.66495 30.8198 9.67871 30.7649 9.68337C30.656 9.69261 30.4574 9.66058 30.1379 9.56343L30.0926 9.71247C30.4124 9.80974 30.6366 9.8506 30.7781 9.83859C30.8485 9.83261 30.9155 9.8122 30.9577 9.76082C31.0025 9.70623 31.0017 9.63892 30.9857 9.58081C30.9698 9.52294 30.9356 9.46063 30.8917 9.39717C30.8472 9.33279 30.7896 9.26279 30.7226 9.18913C30.5885 9.04179 30.4128 8.87561 30.2185 8.70465C29.8297 8.36254 29.3613 7.99667 28.9909 7.7168C28.8055 7.57676 28.6443 7.45803 28.5295 7.37429C28.4721 7.33242 28.4262 7.29929 28.3947 7.27661C28.379 7.26527 28.3668 7.25654 28.3585 7.25064C28.3544 7.24769 28.3513 7.24544 28.3492 7.24393C28.3481 7.24317 28.3473 7.2426 28.3467 7.24222C28.3465 7.24202 28.3463 7.24188 28.3461 7.24178C28.3461 7.24173 28.346 7.24169 28.346 7.24166C28.3459 7.24164 28.3459 7.24162 28.3008 7.30509ZM30.1379 9.56343C29.9526 9.50709 29.7631 9.54313 29.5766 9.6479C29.3915 9.75188 29.2051 9.92556 29.0184 10.1535C28.6449 10.6096 28.2569 11.2999 27.8664 12.1433C27.0846 13.8314 26.2839 16.1527 25.5641 18.495C24.8441 20.838 24.2042 23.205 23.7443 24.9861C23.5143 25.8767 23.3293 26.6209 23.2018 27.1425C23.1381 27.4032 23.0887 27.6084 23.0552 27.7484C23.0385 27.8184 23.0258 27.8721 23.0172 27.9083C23.0129 27.9264 23.0097 27.9401 23.0075 27.9493C23.0064 27.9539 23.0056 27.9574 23.0051 27.9597C23.0048 27.9609 23.0046 27.9618 23.0045 27.9624C23.0044 27.9627 23.0043 27.9629 23.0043 27.963C23.0043 27.9632 23.0042 27.9633 23.0801 27.981C23.1559 27.9988 23.1559 27.9987 23.156 27.9986C23.156 27.9984 23.1561 27.9982 23.1561 27.9979C23.1563 27.9974 23.1565 27.9965 23.1567 27.9953C23.1573 27.993 23.1581 27.9896 23.1592 27.985C23.1613 27.9758 23.1645 27.9622 23.1688 27.9441C23.1773 27.908 23.1901 27.8544 23.2068 27.7846C23.2401 27.6448 23.2895 27.44 23.3531 27.1794C23.4805 26.6584 23.6653 25.9149 23.8951 25.025C24.3547 23.2453 24.994 20.8807 25.713 18.5408C26.4324 16.2001 27.2306 13.887 28.0077 12.2087C28.3966 11.3689 28.778 10.6929 29.1389 10.2522C29.3194 10.0318 29.4915 9.87438 29.6529 9.78372C29.8129 9.69383 29.9582 9.67161 30.0926 9.71247L30.1379 9.56343Z" fill="white" mask="url(#path-17-outside-1_370_768)"/>
</g>
</g>
<path d="M47.18 12.94H49.06L52.66 19.04H52.26L55.92 12.94H57.78L53.24 20.34V25.5H51.66V20.34L47.18 12.94ZM65.1489 15.92H66.7089V25.5H65.1489V15.92ZM58.3689 15.92H59.9289V21.88C59.9289 22.68 60.1222 23.2867 60.5089 23.7C60.9022 24.1133 61.4622 24.32 62.1889 24.32C62.7889 24.32 63.3089 24.16 63.7489 23.84C64.1956 23.52 64.5389 23.08 64.7789 22.52C65.0256 21.9533 65.1489 21.3067 65.1489 20.58H65.7289C65.7289 21.6533 65.5722 22.57 65.2589 23.33C64.9522 24.09 64.5156 24.6733 63.9489 25.08C63.3889 25.48 62.7289 25.68 61.9689 25.68C61.2489 25.68 60.6189 25.5467 60.0789 25.28C59.5389 25.0133 59.1189 24.61 58.8189 24.07C58.5189 23.5233 58.3689 22.8333 58.3689 22V15.92ZM74.1983 25.74C73.2716 25.74 72.4983 25.61 71.8783 25.35C71.2583 25.0833 70.7883 24.72 70.4683 24.26C70.1483 23.7933 69.9783 23.26 69.9583 22.66H71.4583C71.4916 23.2667 71.7349 23.7233 72.1883 24.03C72.6483 24.33 73.2716 24.48 74.0583 24.48C74.4716 24.48 74.8516 24.4133 75.1983 24.28C75.5449 24.1467 75.8216 23.9633 76.0283 23.73C76.2349 23.4967 76.3383 23.2333 76.3383 22.94C76.3383 22.5667 76.2016 22.2733 75.9283 22.06C75.6549 21.8467 75.2183 21.66 74.6183 21.5L72.7583 20.9C71.9516 20.6467 71.3316 20.3 70.8983 19.86C70.4716 19.4133 70.2583 18.88 70.2583 18.26C70.2583 17.4867 70.5983 16.8667 71.2783 16.4C71.9583 15.9333 72.8516 15.7 73.9583 15.7C75.1316 15.7 76.0416 15.94 76.6883 16.42C77.3349 16.9 77.6716 17.5 77.6983 18.22H76.1583C76.0983 17.8 75.8849 17.4833 75.5183 17.27C75.1516 17.05 74.6316 16.94 73.9583 16.94C73.3116 16.94 72.8049 17.0867 72.4383 17.38C72.0783 17.6667 71.8983 17.9867 71.8983 18.34C71.8983 19 72.4649 19.4867 73.5983 19.8L75.4983 20.44C76.3183 20.6867 76.9449 21.01 77.3783 21.41C77.8183 21.81 78.0383 22.32 78.0383 22.94C78.0383 23.42 77.8816 23.8733 77.5683 24.3C77.2549 24.7267 76.8116 25.0733 76.2383 25.34C75.6649 25.6067 74.9849 25.74 74.1983 25.74ZM81.2661 25.5V15.92H82.8261V25.5H81.2661ZM82.3461 21.18C82.3461 19.9667 82.4628 18.96 82.6961 18.16C82.9294 17.3533 83.2694 16.7533 83.7161 16.36C84.1694 15.96 84.7194 15.76 85.3661 15.76C85.5794 15.76 85.7728 15.7767 85.9461 15.81C86.1261 15.8367 86.3061 15.88 86.4861 15.94L86.3861 17.48C86.1994 17.42 85.9961 17.37 85.7761 17.33C85.5561 17.2833 85.3594 17.26 85.1861 17.26C84.6194 17.26 84.1628 17.4233 83.8161 17.75C83.4694 18.07 83.2161 18.5233 83.0561 19.11C82.9028 19.6967 82.8261 20.3867 82.8261 21.18H82.3461ZM89.3727 13.68C89.0527 13.68 88.7993 13.59 88.6127 13.41C88.426 13.2233 88.3327 12.98 88.3327 12.68C88.3327 12.3867 88.426 12.1533 88.6127 11.98C88.7993 11.8067 89.0527 11.72 89.3727 11.72C89.6927 11.72 89.946 11.8067 90.1327 11.98C90.3193 12.1533 90.4127 12.3867 90.4127 12.68C90.4127 12.98 90.3193 13.2233 90.1327 13.41C89.946 13.59 89.6927 13.68 89.3727 13.68ZM88.5927 25.5V15.92H90.1527V25.5H88.5927ZM94.4497 25.5V11.86H96.0097V25.5H94.4497ZM104.801 12.94H107.041L111.361 21.62H111.201L115.521 12.94H117.701V25.5H116.121V14.56H116.401L111.801 23.92H110.761L106.181 14.62H106.361V25.5H104.801V12.94ZM128.235 15.92H129.795V25.5H128.235V15.92ZM121.455 15.92H123.015V21.88C123.015 22.68 123.208 23.2867 123.595 23.7C123.988 24.1133 124.548 24.32 125.275 24.32C125.875 24.32 126.395 24.16 126.835 23.84C127.282 23.52 127.625 23.08 127.865 22.52C128.112 21.9533 128.235 21.3067 128.235 20.58H128.815C128.815 21.6533 128.658 22.57 128.345 23.33C128.038 24.09 127.602 24.6733 127.035 25.08C126.475 25.48 125.815 25.68 125.055 25.68C124.335 25.68 123.705 25.5467 123.165 25.28C122.625 25.0133 122.205 24.61 121.905 24.07C121.605 23.5233 121.455 22.8333 121.455 22V15.92ZM136.784 25.74C136.264 25.74 135.798 25.64 135.384 25.44C134.971 25.24 134.644 24.94 134.404 24.54C134.164 24.14 134.044 23.64 134.044 23.04V13.28H135.584V23C135.584 23.9867 136.044 24.48 136.964 24.48C137.238 24.48 137.501 24.45 137.754 24.39C138.014 24.33 138.304 24.24 138.624 24.12L138.844 25.24C138.504 25.3867 138.164 25.5067 137.824 25.6C137.491 25.6933 137.144 25.74 136.784 25.74ZM132.504 17.02V15.94H138.604V17.02H132.504ZM144.304 25.74C143.784 25.74 143.317 25.64 142.904 25.44C142.49 25.24 142.164 24.94 141.924 24.54C141.684 24.14 141.564 23.64 141.564 23.04V13.28H143.104V23C143.104 23.9867 143.564 24.48 144.484 24.48C144.757 24.48 145.02 24.45 145.274 24.39C145.534 24.33 145.824 24.24 146.144 24.12L146.364 25.24C146.024 25.3867 145.684 25.5067 145.344 25.6C145.01 25.6933 144.664 25.74 144.304 25.74ZM140.024 17.02V15.94H146.124V17.02H140.024ZM154.803 25.5L154.603 23.4V19.3C154.603 18.44 154.42 17.8233 154.053 17.45C153.687 17.07 153.137 16.88 152.403 16.88C151.99 16.88 151.613 16.94 151.273 17.06C150.94 17.18 150.673 17.3667 150.473 17.62C150.28 17.8667 150.183 18.1867 150.183 18.58H148.443C148.443 17.8867 148.613 17.33 148.953 16.91C149.293 16.4833 149.76 16.1767 150.353 15.99C150.953 15.7967 151.637 15.7 152.403 15.7C153.137 15.7 153.787 15.8233 154.353 16.07C154.92 16.3167 155.363 16.71 155.683 17.25C156.003 17.7833 156.163 18.48 156.163 19.34V25.5H154.803ZM151.543 25.74C150.757 25.74 150.107 25.6 149.593 25.32C149.08 25.04 148.697 24.6767 148.443 24.23C148.19 23.7833 148.063 23.3133 148.063 22.82C148.063 22.1733 148.223 21.6467 148.543 21.24C148.87 20.8333 149.313 20.5367 149.873 20.35C150.433 20.1567 151.063 20.06 151.763 20.06C152.263 20.06 152.763 20.11 153.263 20.21C153.77 20.31 154.263 20.4467 154.743 20.62V21.6C154.343 21.44 153.89 21.3133 153.383 21.22C152.883 21.1267 152.423 21.08 152.003 21.08C151.363 21.08 150.823 21.2133 150.383 21.48C149.943 21.74 149.723 22.1867 149.723 22.82C149.723 23.2867 149.89 23.6867 150.223 24.02C150.563 24.3533 151.103 24.52 151.843 24.52C152.363 24.52 152.83 24.4 153.243 24.16C153.663 23.9133 153.993 23.6067 154.233 23.24C154.48 22.8733 154.603 22.5067 154.603 22.14H154.983C154.983 22.78 154.843 23.3733 154.563 23.92C154.29 24.4667 153.897 24.9067 153.383 25.24C152.87 25.5733 152.257 25.74 151.543 25.74ZM163.219 25.74C162.459 25.74 161.749 25.54 161.089 25.14C160.436 24.74 159.906 24.1633 159.499 23.41C159.099 22.6567 158.899 21.7533 158.899 20.7C158.899 19.66 159.099 18.7667 159.499 18.02C159.899 17.2733 160.422 16.7 161.069 16.3C161.722 15.9 162.419 15.7 163.159 15.7C163.812 15.7 164.402 15.86 164.929 16.18C165.462 16.5 165.882 16.9767 166.189 17.61C166.502 18.2367 166.659 19.0133 166.659 19.94H165.979C165.979 19.32 165.856 18.8 165.609 18.38C165.362 17.9533 165.039 17.63 164.639 17.41C164.239 17.19 163.812 17.08 163.359 17.08C162.839 17.08 162.362 17.2233 161.929 17.51C161.496 17.7967 161.149 18.21 160.889 18.75C160.629 19.29 160.499 19.94 160.499 20.7C160.499 21.4933 160.636 22.16 160.909 22.7C161.189 23.24 161.549 23.65 161.989 23.93C162.429 24.2033 162.892 24.34 163.379 24.34C163.819 24.34 164.236 24.2367 164.629 24.03C165.029 23.8233 165.352 23.5167 165.599 23.11C165.852 22.7033 165.979 22.2 165.979 21.6H166.439C166.439 22.4267 166.316 23.15 166.069 23.77C165.822 24.39 165.459 24.8733 164.979 25.22C164.499 25.5667 163.912 25.74 163.219 25.74ZM168.459 30.42C167.552 30.1667 166.912 29.7767 166.539 29.25C166.166 28.7233 165.979 27.98 165.979 27.02V18.18L166.459 15.94H167.519V27.12C167.519 27.5733 167.562 27.93 167.649 28.19C167.736 28.45 167.886 28.6533 168.099 28.8C168.312 28.9533 168.606 29.0933 168.979 29.22L168.459 30.42ZM172.478 13.68C172.158 13.68 171.905 13.59 171.718 13.41C171.531 13.2233 171.438 12.98 171.438 12.68C171.438 12.3867 171.531 12.1533 171.718 11.98C171.905 11.8067 172.158 11.72 172.478 11.72C172.798 11.72 173.051 11.8067 173.238 11.98C173.425 12.1533 173.518 12.3867 173.518 12.68C173.518 12.98 173.425 13.2233 173.238 13.41C173.051 13.59 172.798 13.68 172.478 13.68ZM171.698 25.5V15.92H173.258V25.5H171.698ZM180.875 25.74C180.048 25.74 179.308 25.53 178.655 25.11C178.008 24.6833 177.495 24.0933 177.115 23.34C176.742 22.5867 176.555 21.72 176.555 20.74C176.555 19.6933 176.742 18.7933 177.115 18.04C177.488 17.2867 177.998 16.71 178.645 16.31C179.298 15.9033 180.042 15.7 180.875 15.7C181.602 15.7 182.222 15.8467 182.735 16.14C183.248 16.4333 183.662 16.83 183.975 17.33C184.288 17.83 184.505 18.3967 184.625 19.03C184.752 19.6567 184.788 20.3067 184.735 20.98H177.815V20.02H183.705L183.245 20.32C183.265 19.9267 183.242 19.5333 183.175 19.14C183.115 18.7467 182.998 18.3867 182.825 18.06C182.652 17.7267 182.408 17.46 182.095 17.26C181.782 17.06 181.382 16.96 180.895 16.96C180.282 16.96 179.768 17.1167 179.355 17.43C178.942 17.7433 178.632 18.1567 178.425 18.67C178.218 19.1767 178.115 19.7267 178.115 20.32V20.96C178.115 21.6267 178.215 22.2233 178.415 22.75C178.622 23.2767 178.928 23.6933 179.335 24C179.742 24.3067 180.255 24.46 180.875 24.46C181.495 24.46 182.005 24.31 182.405 24.01C182.805 23.71 183.048 23.2667 183.135 22.68H184.755C184.655 23.3133 184.428 23.86 184.075 24.32C183.722 24.7733 183.272 25.1233 182.725 25.37C182.178 25.6167 181.562 25.74 180.875 25.74ZM194.629 25.5V19.88C194.629 18.9667 194.409 18.2733 193.969 17.8C193.535 17.32 192.942 17.08 192.189 17.08C191.615 17.08 191.119 17.2367 190.699 17.55C190.279 17.8633 189.955 18.3133 189.729 18.9C189.502 19.48 189.389 20.1733 189.389 20.98H188.789C188.789 19.8667 188.935 18.9167 189.229 18.13C189.522 17.3433 189.949 16.7433 190.509 16.33C191.075 15.91 191.762 15.7 192.569 15.7C193.322 15.7 193.965 15.87 194.499 16.21C195.039 16.5433 195.452 17.0233 195.739 17.65C196.025 18.2767 196.169 19.02 196.169 19.88V25.5H194.629ZM187.829 25.5V15.94H189.169L189.389 18.14V25.5H187.829Z" fill="white"/>
<defs>
<clipPath id="clip0_370_768">
<rect width="38" height="38" rx="19" fill="white"/>
</clipPath>
</defs>
</svg>
